<?xml version="1.0" encoding="utf-8"?>
<!-- Generator: Adobe Illustrator 24.1.3, SVG Export Plug-In . SVG Version: 6.00 Build 0)  -->
<svg version="1.1" id="Layer_1" xmlns="http://www.w3.org/2000/svg" xmlns:xlink="http://www.w3.org/1999/xlink" x="0px" y="0px"
	 viewBox="0 0 595.3 841.9" style="enable-background:new 0 0 595.3 841.9;" xml:space="preserve">
<style type="text/css">
	.st0{fill:#006DFE;}
	.st1{fill:#00FEFE;}
</style>
<g>
	<g>
		<path class="st0" d="M413.7,384.3c0-41.2,0-82.5,0-123.7c0-0.6,0-1.2,0-1.9c0-0.6,0.1-1,0.9-0.9c0.5,0.1,1.1,0,1.6,0
			c0.6,0,0.8-0.2,0.8-0.7c0-0.8-0.4-1.9,0.2-2.3c0.6-0.4,1.7-0.2,2.6-0.2c39.7,0,79.5,0,119.2,0c0.7,0,1.4,0,2.1,0
			c0.6,0,0.8,0.2,0.7,0.8c0,0.2,0,0.4,0,0.5c0,1.8,0,1.8,2,1.9c1.2,0,1.2,0,1.2,1.4c0,11.9,0,23.8,0,35.7c0,1.3,0,1.3-1.2,1.3
			c-0.4,0-0.7,0-1.1,0c-0.7-0.1-1,0.2-0.9,0.9c0.1,0.5,0,1.1,0,1.6c0,0.6-0.2,0.8-0.8,0.7c-0.6,0-1.2,0-1.9,0c-28.3,0-56.6,0-84.8,0
			c-2.2,0-2.2,0-2.2,2.2c0,6.2,0,12.4,0,18.7c0,1.5,0,1.5,1.6,1.5c24,0,48,0,72,0c0.5,0,1.1,0,1.6,0c1.6,0,1.6,0,1.6,1.5
			c0,0.3,0,0.5,0,0.8c-0.1,0.6,0.1,1,0.8,0.9c0.5-0.1,1.1,0,1.6,0c0.6,0,0.8,0.2,0.8,0.7c0,1.2,0,2.3,0,3.5c0,8.8,0,17.6,0,26.4
			c0,1.5,0.2,1.4-1.4,1.4c-0.4,0-0.7,0-1.1,0c-0.6,0-0.7,0.2-0.7,0.8c0,0.8,0.4,1.8-0.2,2.3c-0.5,0.4-1.5,0.2-2.3,0.2
			c-23.8,0-47.7,0-71.5,0c-0.5,0-1.1,0-1.6,0c-0.8-0.1-1.4,0-1.2,1.1c0.1,0.5,0,1.1,0,1.6c0,27,0,54,0,81.1c0,0.5,0,1.1,0,1.6
			c0.1,0.8-0.1,1.1-1,1.1c-0.7-0.1-1.6-0.2-2,0.2c-0.5,0.4-0.2,1.3-0.2,2c0,0.8-0.3,1-1,1c-5.6,0-11.2,0-16.8,0
			c-1.4,0-1.4,0-1.4,1.4c0,2.6,0,5.2,0,7.7c0,25.9,0,51.7,0,77.6c0,0.7,0,1.4,0,2.1c0,0.6-0.3,0.7-0.8,0.7c-0.6,0-1.2,0-1.9,0
			c-36.6,0-73.3,0-109.9,0c-0.3,0-0.5,0-0.8,0c-1.9,0-1.9,0-1.9,1.8c0,8.5,0,17.1,0,25.6c0,1.4,0,1.4,1.4,1.4c8.4,0,16.7,0,25.1,0
			c0.4,0,0.9,0,1.3,0c0.8-0.1,1.1,0.2,1,1c0,3.6,0,7.1,0,10.7c0,1,0.2,1.2,1.2,1.2c4.6-0.1,9.2,0,13.9,0c0.9,0,1,0.3,1,1.1
			c0,3.6-0.1,7.1,0,10.7c0,1.1-0.4,1.2-1.2,1.1c-0.4,0-0.9,0-1.3,0c-44.2,0-88.4,0-132.6,0c-0.5,0-1.1-0.1-1.6,0
			c-0.9,0.1-1-0.4-0.9-1.1c0-3.6,0-7.1,0-10.7c0-0.8,0.1-1.1,1-1.1c4.8,0,9.6,0,14.4,0c1.2,0,2.5-0.1,3.7-0.1c0-1.2,0.1-2.4,0.1-3.7
			c0-2.8,0-5.5,0-8.3c0-0.6,0.2-0.7,0.8-0.7c3.2,0,6.4,0,9.6,0c5.8,0,11.6,0,17.3,0c1,0,1.1-0.3,1.1-1.2c0-8.8,0-17.6,0-26.4
			c0-1.2,0-1.2-1.3-1.2c-16.8,0-33.6,0-50.4,0c-21.4,0-42.9,0-64.3,0c-0.5,0-1.1,0-1.6,0c-0.5,0-0.8-0.1-0.8-0.7c0-0.7,0-1.4,0-2.1
			c0-32.4,0-64.9,0-97.3c0-2.3,0-2.3-2.2-2.3c-0.8,0-1.1,0.2-1,1c0,3.6,0,7.1,0,10.7c0,1-0.2,1.3-1.2,1.1c-0.4-0.1-0.9,0-1.3,0
			c-33.5,0-67,0-100.6,0c-0.6,0-1.2,0-1.9,0c-0.6,0-0.8-0.2-0.7-0.8c0-0.2,0-0.4,0-0.5c0-1.8,0-1.8-2-1.9c-1.2,0-1.2,0-1.2-1.4
			c0-2.4,0-4.8,0-7.2c0-0.8-0.1-1.1-1-1.1c-3.6,0-7.1,0-10.7,0c-0.9,0-1.2-0.2-1.2-1.2c0-14.1,0-28.3,0-42.4c0-1.3-0.3-1.3,1.3-1.3
			c11.8,0,23.7,0,35.5,0c1.2,0,2.5,0.1,3.7,0c1-0.1,1.1,0.3,1.1,1.2c0,8.1,0,16.2,0,24.3c0,1.1,0,2.1,0.1,3.2
			c1.1,0.4,2.3,0.2,3.4,0.2c18.3,0,36.6,0,55,0c0.5,0,1.1,0,1.6,0c0.5,0,0.8-0.1,0.8-0.7c0-0.5,0-1.1,0-1.6c0-19.8,0-39.6,0-59.5
			c0-0.4,0-0.9,0-1.3c0.1-0.6-0.1-1-0.9-0.9c-0.6,0.1-1.2,0-1.9,0c-26.9,0-53.9,0-80.8,0c-0.6,0-1.2,0-1.9,0c-0.8,0.1-1.1-0.2-1-1
			c0-4.2,0-8.4,0-12.5c0-0.5,0-1.1,0-1.6c0.1-0.7-0.2-0.9-0.9-0.9c-3.1,0-6.2,0-9.3,0c-0.6,0-1.2,0-1.9,0c-0.6,0-0.8-0.2-0.7-0.8
			c0-0.4,0-0.9,0-1.3c0-21,0-41.9,0-62.9c0-0.4,0-0.9,0-1.3c-0.1-0.8,0.3-0.8,0.9-0.8c3.1,0,6.2,0,9.3,0c0.4,0,0.7,0,1.1,0
			c1.5,0,1.5,0,1.5-1.6c0-5.4,0-10.8,0-16.3c0-1.3,0-1.3,1.2-1.3c2.9,0,5.9,0,8.8,0c30.1,0,60.1,0,90.2,0c2.1,0,2.2,0,2.2,2.2
			c0,0.8,0.3,1,1,1c2.2,0,2.2,0.1,2.2,2.2c0,4.2,0,8.4,0,12.5c0,1.2,0,1.2,1.3,1.2c5.6,0,11.2,0,16.8,0c0.7,0,1.1,0.1,1.1,1
			c0,7.9,0,15.8,0,23.7c0,1-0.5,0.9-1.1,0.9c-3.4,0-6.8,0-10.1,0c-8.6,0-17.3,0-25.9,0c-1.6,0-1.3,0-1.3-1.3c0-2.5,0-5,0-7.5
			c0-0.7-0.2-0.9-0.9-0.9c-0.4,0-0.9,0-1.3,0c-18.8,0-37.5,0-56.3,0c-0.5,0-1.1,0-1.6,0c-0.6,0-0.7,0.2-0.7,0.8c0,1.5,0,3,0,4.5
			c0,10.3,0,20.6,0,30.9c0,2.1,0,2.2,2.3,2.2c20.7,0,41.4,0,62.2,0c0.9,0,2-0.3,2.6,0.2c0.6,0.5,0.2,1.6,0.2,2.5
			c0.1,2.3-0.3,4.6,0.2,6.8c2.2,0,4.4,0,6.6,0.1c1.8,0,3.6,0,5.3,0c0.4,0,0.6,0.2,0.6,0.6c0,1,0,2,0,2.9c0,4.9,0,9.8,0,14.7
			c0,0.8,0.3,1,1,1c5.6,0,11.2,0,16.8,0c1.4,0,1.4,0,1.4,1.4c0,0.4,0,0.9,0,1.3c0,49.3,0,98.6,0,148c0,0.9-0.3,2,0.2,2.6
			c0.6,0.7,1.8,0.2,2.8,0.2c80.3,0,160.6,0,240.9,0c0.2,0,0.4,0,0.5,0c2.1,0,2.1,0,2.1-2.3c0-14.3,0-28.6,0-42.9
			C413.7,438.3,413.7,411.3,413.7,384.3z"/>
		<path class="st1" d="M367.3,312.2c10.7,0,21.3,0,32,0c1.6,0,1.6,0,1.6,1.7c0,0.3,0,0.5,0,0.8c-0.1,0.6,0.3,0.8,0.8,0.7
			c0.3,0,0.5,0,0.8,0c1.6,0,1.6,0,1.6,1.5c0,0.3,0,0.5,0,0.8c-0.1,0.6,0.1,1,0.8,0.9c0.4-0.1,0.9,0,1.3,0c0.8-0.1,1,0.2,1,1
			c0,11,0,22,0,33.1c0,0.9-0.2,1.2-1.2,1.2c-7.4,0-14.8,0-22.1,0c-1.8,0-3.5,0-5.3,0c-0.5-1.8-0.2-3.7-0.2-5.5
			c-0.1-4.2-0.1-8.4,0-12.5c0-1-0.3-1.1-1.2-1.1c-6.8,0-13.5,0-20.3,0c-0.6,0-1,0-1,0.8c0,4.8,0,9.6,0,14.4c0,0.8,0.4,0.9,1,0.8
			c0.4,0,0.9,0,1.3,0c0.6,0,1,0,0.9,0.8c-0.1,0.4,0,0.9,0,1.3c-0.1,0.8,0.1,1.1,1,1.1c0.7-0.1,1.6-0.2,2,0.2c0.5,0.4,0.2,1.3,0.2,2
			c0,0.8,0.3,1,1.1,1c1.5-0.1,3,0,4.5,0c0.8,0,0.9,0.3,0.9,0.9c0,0.5,0,1.1,0,1.6c0,0.6,0.3,0.7,0.8,0.7c0.9,0,1.8,0,2.7,0
			c0.9,0,2-0.3,2.6,0.1c0.7,0.5,0.2,1.6,0.3,2.5c0,0.4,0.1,0.7,0.6,0.6c0.6,0,1.2,0,1.9,0c0.6,0,0.8,0.2,0.8,0.7
			c0,0.8-0.4,1.9,0.2,2.3c0.6,0.4,1.7,0.2,2.6,0.2c0.4,0,0.7,0,1.1,0c0.8,0,1.8-0.2,2.3,0.1c0.6,0.4,0.3,1.5,0.2,2.2
			c0,0.8,0.3,0.8,1,0.8c1.4,0,2.8,0,4.3,0c0.8,0,1.5,0,1.2,1.1c-0.1,0.3,0,0.7,0,1.1c-0.1,0.8,0.1,1.1,1,1.1c0.7-0.1,1.6-0.2,2,0.2
			c0.5,0.4,0.2,1.3,0.2,2c0,0.8,0.2,1.1,1,1c1.5-0.1,3,0,4.5,0c0.7,0,0.9,0.3,0.9,0.9c0,0.5,0,1.1,0,1.6c0,0.6,0.3,0.8,0.8,0.7
			c0.1,0,0.2,0,0.3,0c2.1,0.1,2.1,0.1,2.1,2c0,0.2,0,0.4,0,0.5c0,0.4,0.1,0.7,0.6,0.7c0.5,0,1.1,0,1.6,0c0.8-0.1,1.1,0.2,1.1,1
			c0,5.5,0,11,0,16.5c0,10.8,0,21.5,0,32.3c0,1.5,0.3,1.5-1.4,1.4c-0.9,0-1.8,0-2.7,0c-0.8,0-1.8-0.4-2.2,0.3
			c-0.3,0.5-0.1,1.4-0.1,2.1c0.1,0.7-0.3,0.9-0.9,0.9c-0.4,0-0.9,0-1.3,0c-20.9,0-41.8,0-62.7,0c-0.5,0-1.1,0-1.6,0
			c-0.6,0-0.8-0.2-0.7-0.8c0-0.2,0-0.4,0-0.5c0-1.8,0-1.8-2-1.9c-1.2,0-1.2,0-1.2-1.4c0-0.3,0-0.5,0-0.8c0.1-0.8-0.1-1.1-1-1.1
			c-2.2,0-2.2-0.1-2.2-2.2c0-10.6,0-21.1,0-31.7c0-1.5-0.1-1.3,1.3-1.3c8.8,0,17.6,0,26.4,0c1,0,1.2,0.2,1.2,1.2
			c0,5.7,0,11.4,0,17.1c0,0.8,0.3,1,1.1,1c6.8,0,13.5,0,20.3,0c0.7,0,1.1,0,1.1-0.9c0-5.8,0-11.5,0-17.3c0-0.9-0.4-1-1.1-1
			c-0.8,0.1-1.6,0-2.4,0c-0.9,0-2,0.3-2.6-0.1c-0.7-0.5-0.3-1.6-0.3-2.5c0-0.7-0.4-0.7-0.9-0.6c-1.6,0-3.2,0-4.8,0
			c-0.6,0-0.8-0.2-0.8-0.7c0-0.1,0-0.2,0-0.3c-0.1-0.7,0.3-1.6-0.2-2c-0.5-0.3-1.3-0.2-2-0.2c-0.9,0.1-1-0.3-1-1.1
			c0-2.2,0-2.2-2.2-2.2c-0.5,0-1.1,0-1.6,0c-0.8,0-1.8,0.2-2.3-0.2c-0.6-0.4-0.2-1.5-0.2-2.3c0-0.5-0.1-0.8-0.7-0.8
			c-1.6,0-3.2,0-4.8,0c-0.7,0-1-0.2-0.9-0.9c0.1-0.5,0-1.1,0-1.6c0-0.6-0.2-0.8-0.8-0.7c-1.6,0-3.2,0-4.8,0c-0.7,0-0.9-0.3-0.9-0.9
			c0-0.5,0-1.1,0-1.6c0-0.6-0.3-0.8-0.8-0.7c-0.3,0-0.5,0-0.8,0c-1.6,0-1.6,0-1.6-1.5c0-0.3,0-0.5,0-0.8c0.1-0.6-0.1-1-0.8-0.9
			c-0.9,0.1-1.8,0-2.7,0c-0.9,0-2,0.3-2.6-0.1c-0.7-0.5-0.2-1.6-0.3-2.5c0-0.4-0.2-0.6-0.6-0.6c-0.6,0-1.2,0-1.9,0
			c-0.6,0-0.8-0.2-0.7-0.8c0-0.2,0-0.4,0-0.5c0-1.8,0-1.8-2-1.9c-1.2,0-1.2,0-1.2-1.3c0-15.1,0-30.2,0-45.3c0-1.3,0-1.3,1.2-1.3
			c0.4,0,0.7,0,1.1,0c0.6,0.1,1-0.1,0.9-0.8c-0.1-0.5,0-1.1,0-1.6c0-0.6,0.2-0.8,0.7-0.8c0.1,0,0.2,0,0.3,0c0.7-0.1,1.6,0.3,2-0.2
			c0.3-0.5,0.2-1.3,0.2-2c-0.1-0.9,0.3-1,1.1-1C345.6,312.2,356.4,312.2,367.3,312.2z"/>
		<path class="st1" d="M173.6,374.7c0-17.8,0-35.5,0-53.3c0-0.6,0-1.2,0-1.9c-0.1-0.7,0.2-1,0.9-0.9c0.5,0.1,1.1,0,1.6,0
			c0.6,0,0.8-0.2,0.7-0.8c0-0.2,0-0.4,0-0.5c0-1.9,0-1.9,2-1.9c1.2,0,1.2,0,1.2-1.3c0-0.4,0-0.7,0-1.1c0-0.5,0.1-0.8,0.7-0.8
			c0.5,0,1.1,0,1.6,0c22,0,43.9,0,65.9,0c0.4,0,0.9,0,1.3,0c0.6,0,1,0.1,0.9,0.8c-0.1,0.4,0,0.9,0,1.3c-0.1,0.8,0.1,1.1,1,1.1
			c0.7-0.1,1.6-0.2,2,0.2c0.5,0.4,0.2,1.3,0.2,2c0,0.8,0.3,1,1.1,1c2.2,0,2.2,0.1,2.2,2.2c0,11.3,0,22.6,0,33.9c0,0.4,0,0.9,0,1.3
			c0.1,0.9-0.3,1-1.1,1c-6.2,0-12.4,0-18.7,0c-2.6,0-5.2,0-7.7,0c-1.3,0-1.3,0-1.3-1.2c0-3.3,0-6.6,0-9.9c0-3.5,0-6.9,0-10.4
			c0-0.6-0.1-0.9-0.9-0.9c-8,0-16,0-24,0c-0.6,0-0.8,0.1-0.8,0.7c0,0.5,0,1.1,0,1.6c0,25.1,0,50.3,0,75.4c0,0.5,0,1.1,0,1.6
			c0,0.4,0.2,0.6,0.6,0.6c0.3,0,0.5,0,0.8,0c7.6,0,15.3,0,22.9,0c1.3,0,1.3,0.2,1.3-1.3c0-6.7,0-13.3,0-20c0-1,0.3-1.1,1.2-1.1
			c8.8,0,17.6,0,26.4,0c0.8,0,1.3-0.1,1.3,1.1c-0.1,12.1,0,24.2,0,36.3c0,0.7,0,1.2-1,1.1c-0.4-0.1-0.9,0-1.3,0
			c-0.6,0-1,0.1-0.9,0.8c0.1,0.4,0,0.9,0,1.3c0.1,0.8-0.1,1.1-1,1.1c-0.7-0.1-1.6-0.2-2,0.2c-0.5,0.4-0.2,1.3-0.2,2
			c0,0.8-0.3,1-1.1,1c-2.5,0-5,0-7.5,0c-19.7,0-39.5,0-59.2,0c-0.7,0-1.4,0-2.1,0c-0.5,0-0.6-0.2-0.6-0.6c0-0.6,0-1.2,0-1.9
			c0-0.6-0.3-0.8-0.8-0.7c-0.3,0-0.5,0-0.8,0c-1.6,0-1.6,0-1.6-1.5c0-0.3,0-0.5,0-0.8c0.1-0.6-0.1-1-0.8-0.9c-0.4,0.1-0.9,0-1.3,0
			c-0.8,0.1-1.1-0.2-1-1c0-3.6,0-7.3,0-10.9C173.6,404,173.6,389.3,173.6,374.7z"/>
		<path class="st1" d="M324.1,385.8c0,16.2,0,32.3,0,48.5c0,0.5-0.1,1.1,0,1.6c0.2,1.1-0.4,1.1-1.2,1.1c-3.4,0-6.8,0-10.1,0
			c-2.1,0-4.3,0-6.4,0c-1.4,0-1.5,0-1.5-1.4c0-1.2,0-2.5,0-3.7c0-12.8,0-25.6,0-38.4c0-1.3,0-1.3-1.2-1.3c-7.6,0-15.3,0-22.9,0
			c-1.5,0-1.4-0.2-1.4,1.4c0,13.5,0,27,0,40.5c0,0.9,0.3,2-0.1,2.6c-0.6,0.7-1.8,0.3-2.8,0.3c-5.1,0-10.1,0-15.2,0
			c-1,0-1.2-0.3-1.1-1.2c0.1-0.4,0-0.9,0-1.3c0-32.4,0-64.9,0-97.3c0-0.6,0-1.2,0-1.9c0-0.6,0.3-0.7,0.8-0.7c5.9,0,11.7,0,17.6,0
			c0.5,0,0.8,0.1,0.8,0.7c0,0.6,0,1.2,0,1.9c0,12.2,0,24.4,0,36.5c0,0.5,0,1.1,0,1.6c0,0.6,0.1,0.9,0.9,0.9c8,0,16,0,24,0
			c0.6,0,0.8-0.2,0.8-0.7c0-0.6,0-1.2,0-1.9c0-12.5,0-25.1,0-37.6c0-1.6,0-1.4,1.4-1.4c5.5,0,11,0,16.5,0c1.2,0,1.2,0,1.2,1.3
			c0,10.8,0,21.7,0,32.5C324.1,374.2,324.1,380,324.1,385.8z"/>
		<path class="st0" d="M362.8,481.8c10.1,0,20.3,0,30.4,0c1.3,0,1.3,0,1.3,1.2c0,3.6,0,7.1,0,10.7c0,0.6-0.1,1-0.8,0.9
			c-0.4-0.1-0.9,0-1.3,0c-19.9,0-39.8,0-59.7,0c-0.4,0-0.7,0-1.1,0c-0.7,0.1-1.1-0.1-1.1-1c0.1-3.6,0.1-7.3,0-10.9
			c0-0.9,0.4-0.9,1.1-0.9c4.7,0,9.4,0,14.1,0C351.4,481.8,357.1,481.8,362.8,481.8z"/>
		<path class="st0" d="M276.2,481.8c6.8,0,13.7,0,20.5,0c1.7,0,1.7,0,1.7,1.9c0,3.4,0,6.7,0,10.1c0,0.5-0.1,0.9-0.7,0.8
			c-0.4,0-0.9,0-1.3,0c-13.6,0-27.2,0-40.8,0c-0.4,0-0.9,0-1.3,0c-0.6,0-0.7-0.3-0.7-0.8c0-3.7,0-7.5,0-11.2c0-0.8,0.4-0.8,1-0.8
			c2.4,0,4.8,0,7.2,0C266.6,481.8,271.4,481.8,276.2,481.8z"/>
		<path class="st0" d="M308.2,459.4c5.9,0,11.7,0,17.6,0c1.5,0,1.5,0,1.5,1.6c0,3.5,0,6.9,0,10.4c0,0.5-0.1,0.9-0.7,0.8
			c-0.4,0-0.9,0-1.3,0c-11.5,0-22.9,0-34.4,0c-0.4,0-0.9,0-1.3,0c-0.6,0-0.7-0.3-0.7-0.8c0-3.7,0-7.5,0-11.2c0-0.8,0.4-0.8,1-0.8
			c3.1,0,6.2,0,9.3,0C302.2,459.4,305.2,459.4,308.2,459.4z"/>
		<path class="st1" d="M237.8,459.4c4.8,0,9.6,0,14.4,0c1.5,0,1.5,0,1.5,1.6c0,3.5,0,6.9,0,10.4c0,0.5-0.1,0.9-0.7,0.8
			c-0.4,0-0.7,0-1.1,0c-9.5,0-19,0-28.5,0c-1.7,0-1.7,0-1.7-1.9c0-3.1,0-6.2,0-9.3c0-1.6,0-1.6,1.5-1.6c4,0,8,0,12,0
			C236,459.4,236.9,459.4,237.8,459.4z"/>
		<path class="st0" d="M385.1,459.4c2.8,0,5.7,0,8.5,0c0.6,0,1,0,1,0.8c0,3.7,0,7.5,0,11.2c0,0.8-0.4,0.8-1,0.8
			c-5.8,0-11.5,0-17.3,0c-0.6,0-1,0-1-0.8c0-3.7,0-7.5,0-11.2c0-0.8,0.4-0.8,1-0.8C379.2,459.4,382.1,459.4,385.1,459.4z"/>
		<path class="st1" d="M231.1,494.6c-2.8,0-5.5,0-8.3,0c-0.8,0-1.3,0-1.2-1.1c0.1-3.5,0.1-7.1,0-10.6c0-1.1,0.5-1.1,1.3-1.1
			c4.1,0,8.2,0,12.3,0c1.6,0,3.2,0,4.8,0c0.6,0,1,0,1,0.8c0,3.7,0,7.5,0,11.2c0,0.8-0.4,0.8-1,0.8
			C237,494.6,234.1,494.6,231.1,494.6z"/>
		<path class="st0" d="M215.1,264.3c-1,0-2.2,0.3-2.8-0.2c-0.7-0.5-0.2-1.8-0.2-2.8c0-1.1-0.3-2.3,0.2-3.4c1.1,0,2.1,0,3.2-0.1
			c1,0,2.3,0.3,2.8-0.2c0.5-0.5,0.2-1.8,0.2-2.8c0-1.1-0.4-2.5,0.2-3.1c0.7-0.8,2.2-0.3,3.3-0.3c1,0,2.3-0.4,2.8,0.2
			c0.5,0.6,0.2,1.8,0.2,2.8c0,1.1,0.1,2.1,0.1,3.2c1.1,0.4,2.3,0.1,3.4,0.2c0.4,0,0.9,0,1.3,0c1.6,0,1.6,0,1.6,1.5
			c0,1.6-0.1,3.2-0.1,4.8c-1.6,0.3-3.2,0.1-4.7,0.2c-0.3,0-0.5,0-0.8,0c-0.6-0.1-0.8,0.2-0.8,0.7c0,1.6,0,3.2,0,4.8
			c0,0.7-0.2,1-0.9,0.9c-0.1,0-0.2,0-0.3,0c-1.7,0-3.4,0-5-0.1c-0.4-1.6-0.1-3.3-0.2-5c-0.1-1.3,0-1.3-1.5-1.4
			C216.4,264.2,215.8,264.2,215.1,264.3C215.1,264.2,215.1,264.2,215.1,264.3z"/>
		<path class="st0" d="M362.5,254.8c0,1-0.3,2.2,0.2,2.8c0.5,0.7,1.8,0.1,2.8,0.2c1.1,0.1,2.3-0.3,3.4,0.2c0,1.1,0.1,2.1,0.1,3.2
			c0,1,0.3,2.3-0.2,2.8c-0.5,0.5-1.8,0.2-2.8,0.2c-1.1,0-2.5-0.4-3.1,0.2c-0.8,0.7-0.2,2.2-0.3,3.3c-0.1,1,0.4,2.3-0.2,2.8
			c-0.6,0.5-1.9,0.2-2.8,0.2c-1.1,0-2.1,0-3.2-0.1c-0.4-1.1-0.1-2.3-0.2-3.4c0-0.4,0-0.9,0-1.3c0-1.6,0-1.6-1.5-1.6
			c-1.4,0-2.8,0-4.3,0c-0.4,0-0.7-0.1-0.6-0.6c0-0.1,0-0.2,0-0.3c0-1.8,0-3.5,0-5.3c1.7-0.5,3.5-0.2,5.2-0.2c1,0,1.3-0.3,1.1-1.2
			c0-0.1,0-0.2,0-0.3c0.1-1.7-0.3-3.3,0.3-5c1.9,0,3.7,0,5.6,0c0.5,0,0.6,0.3,0.6,0.7C362.5,253,362.5,253.9,362.5,254.8
			C362.5,254.8,362.5,254.8,362.5,254.8z"/>
		<path class="st1" d="M176.7,261.1c1.1-0.1,2.4,0.3,3.1-0.3c0.7-0.6,0.1-2,0.2-3c0.1-1-0.5-2.4,0.3-3c0.6-0.5,1.9-0.2,2.8-0.1
			c1,0,2.5-0.5,3,0.2c0.5,0.6,0.2,2,0.2,3.1c0,1-0.3,2.2,0.2,2.8c0.6,0.8,2,0.2,3,0.3c1,0.1,2.5-0.5,3,0.3c0.5,0.7,0.2,2,0.2,3.1
			c0,1,0.3,2.2-0.2,2.8c-0.5,0.7-1.8,0.1-2.8,0.2c-1.1,0.1-2.3-0.3-3.4,0.2c0,1.1,0,2.1-0.1,3.2c0,1,0.3,2.3-0.2,2.8
			c-0.5,0.5-1.8,0.2-2.8,0.2c-1.1,0-2.5,0.4-3.1-0.1c-0.8-0.7-0.2-2.2-0.3-3.3c-0.1-1,0.4-2.3-0.2-2.8c-0.6-0.5-1.9-0.2-2.8-0.2
			c-1.1,0-2.1-0.1-3.2-0.1c-0.4-1.1-0.1-2.3-0.2-3.4c0-0.4,0-0.7,0-1.1c0-1.9,0-1.9,1.8-1.9C175.9,261,176.3,261,176.7,261.1
			C176.7,261,176.7,261.1,176.7,261.1z"/>
		<path class="st1" d="M400.9,257.9c0,0.6,0,1.1,0,1.5c0,1.6,0,1.6,1.5,1.6c1.4,0,2.8,0,4.3,0c0.4,0,0.7,0.1,0.6,0.6
			c0,0.1,0,0.2,0,0.3c0,1.8,0,3.5,0,5.3c-1.7,0.5-3.5,0.2-5.2,0.2c-1,0-1.3,0.3-1.1,1.2c0,0.1,0,0.2,0,0.3c-0.1,1.7,0.3,3.3-0.3,5
			c-1.9,0-3.7,0-5.6,0c-0.5,0-0.6-0.3-0.6-0.7c0-1.6,0-3.2,0-4.8c0-0.6,0-1.1-0.8-0.9c-0.3,0-0.7,0-1.1,0c-1.5-0.1-3,0.3-4.5-0.2
			c0-1.4,0-2.8-0.1-4.2c0-0.4,0-0.7,0-1.1c-0.1-0.7,0.2-0.9,0.9-0.9c1.6,0.1,3.2,0,4.8,0c0.6,0,0.8-0.2,0.7-0.8c0-1.6,0-3.2,0-4.8
			c0-0.8,0.3-0.9,0.9-0.9c0.7,0,1.4,0,2.1,0c1.1,0,2.1,0,3.2,0.1C401.2,255.8,400.8,257,400.9,257.9z"/>
		<path class="st1" d="M253.6,277.2c0,1-0.3,2.2,0.2,2.8c0.5,0.7,1.8,0.1,2.8,0.2c1.1,0.1,2.3-0.3,3.4,0.2c0,1.1,0.1,2.1,0.1,3.2
			c0,1,0.3,2.3-0.2,2.8c-0.5,0.5-1.8,0.2-2.8,0.2c-1.1,0-2.5-0.4-3.1,0.2c-0.8,0.7-0.2,2.2-0.3,3.3c-0.1,1,0.4,2.3-0.2,2.8
			c-0.6,0.5-1.9,0.2-2.8,0.2c-1.1,0-2.1,0-3.2-0.1c-0.4-1.1-0.1-2.3-0.2-3.4c0-0.4,0-0.9,0-1.3c0-1.6,0-1.6-1.5-1.6
			c-1.4,0-2.8,0-4.3,0c-0.4,0-0.7-0.1-0.6-0.6c0-0.1,0-0.2,0-0.3c0-1.8,0-3.5,0-5.3c1.7-0.5,3.5-0.2,5.2-0.2c1,0,1.3-0.3,1.1-1.2
			c0-0.1,0-0.2,0-0.3c0.1-1.7-0.3-3.3,0.3-5c1.9,0,3.7,0,5.6,0c0.5,0,0.6,0.3,0.6,0.7C253.7,275.4,253.7,276.3,253.6,277.2
			C253.7,277.1,253.7,277.2,253.6,277.2z"/>
		<path class="st1" d="M336.9,286.6c-1,0.1-2.4-0.5-3,0.2c-0.5,0.6-0.1,1.9-0.2,2.8c0,1.1,0.3,2.4-0.2,3.1c-0.6,0.7-2,0.2-3,0.2
			c-1,0-2.4,0.5-3-0.3c-0.5-0.6-0.1-1.9-0.1-2.8c0-1,0.5-2.5-0.2-3c-0.6-0.5-2-0.2-3.1-0.2c-1,0-2.2,0.3-2.8-0.2
			c-0.8-0.6-0.2-2-0.3-3c0-1-0.5-2.5,0.2-3c0.7-0.5,2-0.2,3.1-0.2c1,0,2.2,0.3,2.8-0.2c0.7-0.5,0.1-1.8,0.2-2.8
			c0.1-1.1-0.3-2.3,0.2-3.4c1.1,0,2.1-0.1,3.2-0.1c1,0,2.3-0.3,2.8,0.2c0.5,0.5,0.2,1.8,0.2,2.8c0,1.1-0.4,2.5,0.2,3.1
			c0.7,0.8,2.2,0.2,3.3,0.3c1,0.1,2.3-0.4,2.8,0.2c0.5,0.6,0.2,1.8,0.2,2.8c0,0.1,0,0.2,0,0.3c0,1,0.3,2.3-0.2,2.8
			C339.3,287.1,337.9,286.4,336.9,286.6z"/>
		<path class="st0" d="M386.4,453c-2.3,0-4.6,0-6.9,0c-0.6,0-1,0-1-0.8c0-3.7,0-7.5,0-11.2c0-0.5,0.1-0.8,0.7-0.8
			c4.9,0,9.8,0,14.6,0c0.6,0,0.7,0.3,0.7,0.8c0,3.7,0,7.5,0,11.2c0,0.8-0.4,0.8-1,0.8C391.2,453,388.8,453,386.4,453z"/>
		<path class="st1" d="M204.1,472.2c-2,0-4.1,0-6.1,0c-1.9,0-1.9,0-1.9-1.7c0-3.3,0-6.6,0-9.8c0-0.8-0.1-1.3,1.1-1.3
			c4.6,0.1,9.2,0.1,13.8,0c0.7,0,1.1,0,1.1,0.9c-0.1,3.6-0.1,7.3,0,10.9c0,0.9-0.4,1-1.1,1C208.7,472.2,206.4,472.2,204.1,472.2z"/>
		<path class="st0" d="M357.7,472.2c-2.1,0-4.3,0-6.4,0c-1.6,0-1.6,0-1.6-1.5c0-3.4,0-6.7,0-10.1c0-0.8-0.1-1.3,1.1-1.3
			c4.6,0.1,9.2,0.1,13.8,0c0.7,0,1.1,0,1.1,0.9c-0.1,3.6-0.1,7.3,0,10.9c0,0.9-0.4,1-1.1,1C362.3,472.2,360,472.2,357.7,472.2z"/>
		<path class="st1" d="M203.4,494.6c-2.1-0.1-4.7,0.2-7.2-0.2c0-2.5-0.1-4.9-0.1-7.4c0-1.7,0.1-3.3,0.1-5c1.7-0.4,3.3-0.1,5-0.2
			c3.4,0,6.7,0,10.1,0c0.5,0,0.8,0.1,0.8,0.7c0,3.8,0,7.6,0,11.4c0,0.6-0.3,0.7-0.8,0.7C208.8,494.6,206.3,494.6,203.4,494.6z"/>
		<path class="st0" d="M312.8,494.6c-2.3,0-4.6,0-6.9,0c-0.6,0-1,0-1-0.8c0-3.7,0-7.5,0-11.2c0-0.8,0.4-0.8,1-0.8
			c4.7,0,9.4,0,14.1,0c0.6,0,1,0,1,0.8c0,3.7,0,7.5,0,11.2c0,0.8-0.4,0.8-1,0.8C317.6,494.6,315.2,494.6,312.8,494.6z"/>
		<path class="st0" d="M266.5,465.7c0-1.8,0-3.5,0-5.3c0-0.6,0-1,0.8-1c3.7,0,7.5,0,11.2,0c0.8,0,0.8,0.4,0.8,1c0,3.6,0,7.3,0,10.9
			c0,0.6,0,1-0.8,1c-3.7,0-7.5,0-11.2,0c-0.8,0-0.8-0.4-0.8-1C266.5,469.4,266.5,467.5,266.5,465.7z"/>
	</g>
</g>
</svg>
